<svg width="433" height="auto" fill="none" viewBox="0 0 433 60" xmlns="http://www.w3.org/2000/svg" class="_9ae78c8f"><path d="M26.22 22.95l4.4 5.31a14.4 14.4 0 0 1-10.34 4.05c-10.35 0-16.56-7.02-16.56-16.11C3.72 7.2 10.2 0 20.14 0c4.73 0 8.06 1.53 10.53 3.69l-4.45 5.67a8.9 8.9 0 0 0-5.99-2.34c-5.53 0-8.64 4.05-8.64 9.13 0 5.13 3.47 9.14 8.69 9.14a9 9 0 0 0 5.94-2.34zm18.77 9.36c-8.77 0-12.78-5.22-12.78-13V.57h7.52V19.3c0 3.51 1.66 5.94 5.35 5.94 3.56 0 5.27-2.47 5.27-5.98V.58h7.51v18.68c0 7.51-4.32 13.05-12.87 13.05zM82.05 9.85c0 3.47-1.44 6.12-3.96 7.65l7.1 14.22h-8.05l-6.12-12.78H69v12.78h-7.47V.58h10.7c6.53 0 9.82 3.38 9.82 9.27zM71.6 7.06H69v5.76h2.6c1.72 0 2.7-1.17 2.7-2.92 0-1.71-1.03-2.84-2.7-2.84zm35.18 2.8c0 3.46-1.44 6.11-3.96 7.64l7.1 14.22h-8.05l-6.12-12.78h-2.02v12.78h-7.47V.58h10.7c6.53 0 9.82 3.38 9.82 9.27zm-10.44-2.8h-2.61v5.76h2.6c1.72 0 2.7-1.17 2.7-2.92 0-1.71-1.03-2.84-2.7-2.84zm29.55 24.66H111V.58h14.77V7.6h-7.25v4.82h7.02v6.93h-7.02v5.35h7.38v7.02zm22.43 0l-12.02-18.4v18.4h-7.24V.58h7.74l11.7 18.81V.6h7.24v31.13h-7.42zm32.62-8.77l4.4 5.31A14.4 14.4 0 0 1 175 32.31c-10.35 0-16.56-7.02-16.56-16.11 0-9 6.48-16.2 16.42-16.2 4.73 0 8.06 1.53 10.53 3.69l-4.45 5.67a8.9 8.9 0 0 0-5.99-2.34c-5.53 0-8.64 4.05-8.64 9.13 0 5.13 3.47 9.14 8.69 9.14a9 9 0 0 0 5.94-2.34zm13.09-6.53L185.4.58h8.32l4.32 8.51 4.37-8.5h7.92l-8.82 15.7v15.43h-7.47v-15.3zm39.22 15.3h-14.9V.58h14.77V7.6h-7.25v4.82h7.02v6.93h-7.02v5.35h7.38v7.02zm1 0l10.22-16.06L234.63.58h9.13l5.45 8.55 5.26-8.55h8.82l-9.76 15.3 10.12 15.84h-8.68l-6.17-9.49c-3.2 4.77-5.22 8.1-6.12 9.5h-8.41zm50.62-8.77l4.4 5.31a14.4 14.4 0 0 1-10.34 4.05c-10.35 0-16.56-7.02-16.56-16.11 0-9 6.48-16.2 16.42-16.2 4.73 0 8.06 1.53 10.53 3.69l-4.45 5.67a8.9 8.9 0 0 0-5.99-2.34c-5.53 0-8.64 4.05-8.64 9.13 0 5.13 3.47 9.14 8.69 9.14a9 9 0 0 0 5.94-2.34zM317.28.58v31.14h-7.52V19.44h-10.8v12.28h-7.51V.58h7.51v11.7h10.8V.58h7.52zm23.82 31.14l-2.62-7.42h-9.8l-2.57 7.42h-7.38L329.62.58h7.92l11.52 31.14h-7.96zm-7.52-21.6L330.83 18h5.5l-2.75-7.88zm36.19 21.6l-12.02-18.4v18.4h-7.24V.58h7.74l11.7 18.81V.6h7.24v31.13h-7.42zm40.67-17.19v17.2h-7.24v-1.54c-1.49 1.17-3.83 2.07-7.16 2.07-9.63 0-16.15-6.43-16.15-16.15 0-8.64 6.3-16.11 16.15-16.11 6.8 0 10.94 2.88 13.23 6.57l-5.94 4.27A8.43 8.43 0 0 0 396 7.02c-4.9 0-8.28 3.73-8.28 9.09 0 5.62 3.73 9.22 8.68 9.22 3.47 0 5.72-1.39 6.66-2.38V20.7h-4.63v-6.17h12.01zm18.38 17.2h-14.9V.57h14.76V7.6h-7.24v4.82h7.02v6.93h-7.02v5.35h7.38v7.02zM3.83 46.54c0 .53.3.89 1.14 1.21l1.56.61c1.62.67 2.58 1.75 2.58 3.6 0 2.52-1.78 4-4.29 4-3.56 0-4.2-2.32-4.1-4.14h2.84c-.03.8.27 1.56 1.26 1.56.69 0 1.2-.37 1.2-1.1 0-.7-.51-1.04-1.32-1.34-.63-.26-1.26-.49-1.95-.83C1.5 49.46.83 48.24.83 46.72c0-2.17 1.58-3.69 4.01-3.69 2.94 0 4 1.68 3.87 3.9H5.94c.02-.78-.38-1.32-1.08-1.32-.68 0-1.03.41-1.03.93zm15.37 5.31h-6.42c.12.92.84 1.48 1.96 1.48 1.02 0 1.62-.6 1.96-1.13l2.21 1.3c-.54 1.1-1.8 2.39-4.19 2.39-2.93 0-4.95-1.86-4.95-4.94 0-2.88 1.93-5.02 4.73-5.02 2.96 0 4.74 1.93 4.74 4.8 0 .3 0 .64-.04 1.12zm-4.7-3.5c-1 0-1.58.7-1.65 1.47h3.38c-.07-.8-.68-1.48-1.73-1.48zM25 55.71v-5.99c0-.7-.35-1.17-1.03-1.17-.67 0-1.03.45-1.03 1.15v6.01h-2.9V46.1h2.9v.62c.22-.2.77-.72 1.94-.72 2.27 0 3.01 1.54 3.01 3.4v6.33H25zm11.24 0v-.63a4 4 0 0 1-2.53.8 4.72 4.72 0 0 1-4.99-4.95c0-2.76 1.94-5 4.86-5 1.08 0 1.85.23 2.43.59v-3.96h2.9v13.15h-2.67zM31.6 50.9c0 1.35.92 2.4 2.25 2.4 1.42 0 2.25-1.07 2.25-2.4 0-1.35-.88-2.41-2.25-2.41-1.4 0-2.25 1.06-2.25 2.41zm19.74 4.82l-.65-.66a6 6 0 0 1-3.17.86c-3.24 0-5.1-1.69-5.1-3.94 0-1.46.7-2.72 1.97-3.37a3.2 3.2 0 0 1-.8-2.2c0-1.9 1.47-3.34 3.75-3.34 2.47 0 3.82 1.44 3.82 3.35a2.87 2.87 0 0 1-2.25 2.93l1.5 1.57c.14-.6.2-1.26.2-1.87h2.82a7.3 7.3 0 0 1-.94 4.1l2.47 2.57h-3.62zm-3.74-2.4c.43 0 .88-.1 1.17-.2l-2.72-2.8c-.33.26-.56.7-.56 1.23 0 1.04.85 1.76 2.1 1.76zm-1.28-6.81c0 .61.5 1.06 1.11 1.06.62 0 1.08-.47 1.08-1.12-.01-.59-.48-1.02-1.11-1.02-.63 0-1.08.47-1.08 1.08zm19.78.47c0 1.38-.58 2.44-1.58 3.06l2.84 5.68h-3.22l-2.45-5.1h-.81v5.1h-2.99V43.27h4.29c2.6 0 3.92 1.35 3.92 3.7zm-4.18-1.12h-1.04v2.3h1.04c.69 0 1.08-.46 1.08-1.17 0-.68-.41-1.13-1.08-1.13zm14.32 6h-6.42c.12.91.84 1.47 1.96 1.47 1.03 0 1.62-.6 1.96-1.13l2.22 1.3c-.54 1.1-1.8 2.39-4.2 2.39-2.93 0-4.95-1.86-4.95-4.94 0-2.88 1.93-5.02 4.74-5.02 2.95 0 4.73 1.93 4.73 4.8 0 .3 0 .64-.04 1.12zm-4.7-3.52c-1 0-1.58.7-1.65 1.48h3.38c-.07-.8-.68-1.48-1.72-1.48zm10.3 4.94c.79 0 1.3-.36 1.6-.63l1.6 2.05a4.71 4.71 0 0 1-3.22 1.19 4.77 4.77 0 0 1-5.02-4.95c0-2.8 2.08-5 4.98-5 1.64 0 2.68.64 3.26 1.18l-1.6 2.05c-.3-.27-.83-.63-1.62-.63-1.37 0-2.14 1.03-2.14 2.38 0 1.5 1.02 2.36 2.16 2.36zm12.28-1.43h-6.43c.13.92.85 1.48 1.97 1.48 1.02 0 1.62-.6 1.96-1.13l2.21 1.3c-.54 1.1-1.8 2.39-4.2 2.39-2.93 0-4.94-1.86-4.94-4.94 0-2.88 1.92-5.02 4.73-5.02 2.95 0 4.74 1.93 4.74 4.8 0 .3 0 .64-.04 1.12zm-4.7-3.5c-1 0-1.58.7-1.65 1.47h3.38c-.07-.8-.68-1.48-1.73-1.48zm8.44-2.26v9.63h-2.9V46.1h2.9zm-1.5-.37c-.91 0-1.63-.74-1.63-1.64 0-.92.72-1.66 1.63-1.66a1.65 1.65 0 1 1 0 3.3zm5.25.37l1.77 5.98 1.76-5.98h2.99l-3.22 9.63h-3.2l-3.3-9.63h3.2zm15.59 5.76h-6.43c.13.92.85 1.48 1.97 1.48 1.02 0 1.62-.6 1.96-1.13l2.21 1.3c-.54 1.1-1.8 2.39-4.2 2.39-2.93 0-4.94-1.86-4.94-4.94 0-2.88 1.92-5.02 4.73-5.02 2.95 0 4.74 1.93 4.74 4.8 0 .3 0 .64-.04 1.12zm-4.7-3.5c-1 0-1.58.7-1.65 1.47h3.38c-.07-.8-.68-1.48-1.73-1.48zm19.91-1.37l-2.95 8.74h-2.84l-2.96-8.74v8.74h-2.77V43.27h4.5l2.76 8.44 2.75-8.44h4.41v12.45h-2.9v-8.74zm6.78 3.94c0 1.35.9 2.36 2.2 2.36 1.37 0 2.18-1.03 2.18-2.36 0-1.35-.88-2.38-2.2-2.38-1.37 0-2.18 1.03-2.18 2.38zm-2.88.02c0-2.81 2.1-5 5.04-5 3.16 0 5.1 2.15 5.1 4.94 0 2.81-2.02 5-5.08 5-3.1 0-5.06-2.15-5.06-4.94zm15.95 4.78v-5.99c0-.7-.34-1.17-1.03-1.17-.66 0-1.02.45-1.02 1.15v6.01h-2.9V46.1h2.9v.62c.21-.2.77-.72 1.94-.72 2.27 0 3 1.54 3 3.4v6.33h-2.9zm13.16-3.87h-6.43c.13.92.85 1.48 1.96 1.48 1.03 0 1.62-.6 1.97-1.13l2.2 1.3c-.53 1.1-1.8 2.39-4.19 2.39-2.93 0-4.94-1.86-4.94-4.94 0-2.88 1.92-5.02 4.73-5.02 2.95 0 4.73 1.93 4.73 4.8 0 .3 0 .64-.03 1.12zm-4.7-3.5c-1 0-1.59.7-1.66 1.47h3.39c-.07-.8-.69-1.48-1.73-1.48zm9.23 10.52h-2.8l1.32-3.67-3.53-9.1h3.19l1.82 5.16 1.8-5.17h2.95l-4.75 12.78zm7.73-6.33c-.02-1.9 1.28-3.17 3.27-3.17.8 0 1.34.18 1.59.34v-.4c0-.53-.22-1.04-.94-1.04-.68 0-.88.45-.88.83h-2.68c.05-1.94 1.19-3.11 3.54-3.11 3 0 3.82 1.6 3.82 3.76v5.97h-2.38v-.52c-.45.4-1.06.63-1.98.63-1.89 0-3.34-1.24-3.36-3.3zm2.72-.07c0 .63.46 1.08 1.1 1.08.62 0 1.1-.45 1.1-1.08 0-.65-.5-1.07-1.13-1.07-.63 0-1.07.45-1.07 1.07zm10.86.8c.8 0 1.3-.35 1.6-.62l1.6 2.05a4.71 4.71 0 0 1-3.22 1.19 4.77 4.77 0 0 1-5.02-4.95c0-2.8 2.09-5 4.99-5 1.63 0 2.68.64 3.25 1.18l-1.6 2.05c-.3-.27-.83-.63-1.62-.63-1.37 0-2.14 1.03-2.14 2.38 0 1.5 1.03 2.36 2.16 2.36zm8.38-7.23v3.04h-.72c-.77 0-.97.3-.97.9v5.74h-2.9V46.1h2.9v.67c.36-.47.83-.72 1.7-.72zm3.15 4.88c0 1.35.9 2.36 2.2 2.36 1.37 0 2.18-1.03 2.18-2.36 0-1.35-.88-2.38-2.2-2.38-1.37 0-2.18 1.03-2.18 2.38zm-2.88.02c0-2.81 2.1-5 5.04-5 3.15 0 5.1 2.15 5.1 4.94 0 2.81-2.02 5-5.08 5-3.1 0-5.06-2.15-5.06-4.94zm13.54-2.18c0 .36.23.56.77.66.41.1.85.17 1.17.26 1.67.46 2.43 1.24 2.43 2.98 0 2.27-1.75 3.2-3.67 3.2-2.85 0-3.67-1.63-3.6-3.3h2.75c-.02.48.15 1 .88 1 .49 0 .83-.21.83-.59 0-.4-.2-.58-.79-.7a12.2 12.2 0 0 1-1.46-.38c-1.4-.49-2.05-1.48-2.05-2.92 0-1.87 1.51-3 3.5-3 2.04 0 3.43.92 3.45 3.13H215c-.02-.58-.29-.94-.86-.94-.43 0-.7.24-.7.6zm7.77 0c0 .36.23.56.77.66.41.1.85.17 1.17.26 1.67.46 2.43 1.24 2.43 2.98 0 2.27-1.75 3.2-3.67 3.2-2.85 0-3.67-1.63-3.6-3.3h2.75c-.02.48.15 1 .88 1 .49 0 .83-.21.83-.59 0-.4-.2-.58-.79-.7a12.2 12.2 0 0 1-1.46-.38c-1.4-.49-2.05-1.48-2.05-2.92 0-1.87 1.51-3 3.5-3 2.04 0 3.43.92 3.45 3.13h-2.65c-.02-.58-.29-.94-.86-.94-.43 0-.7.24-.7.6zm10.74 2.14c0 1.39.9 2.4 2.27 2.4 1.42 0 2.23-1.03 2.23-2.4 0-1.39-.86-2.41-2.25-2.41-1.44 0-2.25 1.02-2.25 2.41zm-.09 4.18v.64h-2.72V42.57h2.9v4.2a4.03 4.03 0 0 1 2.56-.84c2.93 0 4.73 2 4.73 4.97 0 2.86-1.94 4.99-4.93 4.99-.96 0-1.91-.3-2.54-.81zm10.93-4.16c0 1.35.9 2.36 2.2 2.36 1.37 0 2.18-1.03 2.18-2.36 0-1.35-.89-2.38-2.2-2.38-1.37 0-2.18 1.03-2.18 2.38zm-2.88.02c0-2.81 2.09-5 5.04-5 3.15 0 5.1 2.15 5.1 4.94 0 2.81-2.02 5-5.08 5-3.1 0-5.06-2.15-5.06-4.94zm15.58-4.9v3.04h-.72c-.77 0-.97.3-.97.9v5.74h-2.9V46.1h2.9v.67c.36-.47.83-.72 1.7-.72zm7.8 9.68v-.63c-.65.54-1.6.8-2.54.8a4.72 4.72 0 0 1-4.98-4.95c0-2.76 1.94-5 4.86-5 1.08 0 1.85.23 2.43.59v-3.96h2.9v13.15h-2.67zm-4.64-4.82c0 1.35.91 2.4 2.25 2.4 1.42 0 2.25-1.07 2.25-2.4 0-1.35-.89-2.41-2.25-2.41-1.4 0-2.25 1.06-2.25 2.41zm17.6.95h-6.42c.13.92.85 1.48 1.96 1.48 1.03 0 1.62-.6 1.96-1.13l2.22 1.3c-.54 1.1-1.8 2.39-4.2 2.39-2.93 0-4.95-1.86-4.95-4.94 0-2.88 1.93-5.02 4.74-5.02 2.95 0 4.73 1.93 4.73 4.8 0 .3 0 .64-.04 1.12zm-4.7-3.5c-1 0-1.58.7-1.65 1.47h3.38c-.07-.8-.68-1.48-1.72-1.48zm10.13-2.3v3.03h-.71c-.78 0-.98.3-.98.9v5.74h-2.9V46.1h2.9v.67c.36-.47.83-.72 1.7-.72zm3.37 2.7c0 .37.23.57.77.67.42.1.85.17 1.17.26 1.68.46 2.43 1.24 2.43 2.98 0 2.27-1.74 3.2-3.67 3.2-2.84 0-3.67-1.63-3.6-3.3h2.75c-.01.48.15 1 .89 1 .48 0 .82-.21.82-.59 0-.4-.2-.58-.79-.7a12.2 12.2 0 0 1-1.45-.38c-1.4-.49-2.06-1.48-2.06-2.92 0-1.87 1.51-3 3.5-3 2.05 0 3.43.92 3.45 3.13h-2.64c-.02-.58-.3-.94-.87-.94-.43 0-.7.24-.7.6zm16.41-2.66l1.37 5.9 1.32-5.9h3l-2.55 9.63h-3.2l-1.54-5.43-1.47 5.43h-3.26l-2.7-9.63h3.27l1.3 5.9 1.39-5.9h3.07zm9.19 0v9.63h-2.9V46.1h2.9zm-1.5-.37c-.91 0-1.63-.74-1.63-1.64a1.65 1.65 0 1 1 3.3 0c0 .9-.75 1.64-1.66 1.64zm6.05-1.16v1.53h1.28v2.43h-1.28v3.84c0 .65.27.86.79.86h.49v2.43s-.45.18-1.46.18c-1.84 0-2.72-.95-2.72-2.6v-4.7h-.85v-2.44h.85v-1.53h2.9zm7.22 11.16v-5.99c0-.7-.34-1.17-1.02-1.17-.67 0-1.03.45-1.03 1.15v6.01h-2.9V42.57h2.9v4.14c.22-.2.77-.72 1.94-.72 2.27 0 3.01 1.54 3.01 3.4v6.33h-2.9zm12.72 0h-5.85V43.27h3v9.65h2.85v2.8zm3.81-9.63v9.63h-2.9V46.1h2.9zm-1.5-.37c-.91 0-1.63-.74-1.63-1.64a1.65 1.65 0 1 1 3.3 0c0 .9-.75 1.64-1.66 1.64zm7.6 10v-5.99c0-.7-.35-1.17-1.03-1.17-.67 0-1.03.45-1.03 1.15v6.01h-2.9V46.1h2.9v.62c.22-.2.78-.72 1.95-.72 2.26 0 3 1.54 3 3.4v6.33h-2.9zm12.65-9.63l-3.13 4.41 3.26 5.22h-3.5l-2.37-4.05v4.05h-2.9V42.57h2.9v7.1l2.41-3.58h3.33zm9.5 9.63h-5.95V43.27h5.9v2.8h-2.9V48h2.8v2.77h-2.8v2.15h2.95v2.8zm7.21 0l-1.78-2.62-1.8 2.62h-3.1l3.35-4.9-3.2-4.73h3.33l1.56 2.34 1.57-2.34h3.15l-3.19 4.65 3.33 4.98h-3.22zm7.54-2.44c.8 0 1.3-.36 1.6-.63l1.6 2.05a4.71 4.71 0 0 1-3.21 1.19 4.77 4.77 0 0 1-5.02-4.95c0-2.8 2.08-5 4.98-5 1.64 0 2.68.64 3.26 1.18l-1.6 2.05c-.3-.27-.83-.63-1.62-.63-1.37 0-2.14 1.03-2.14 2.38 0 1.5 1.02 2.36 2.15 2.36zm8.75 2.44v-5.99c0-.7-.35-1.17-1.03-1.17-.67 0-1.03.45-1.03 1.15v6.01h-2.9V42.57h2.9v4.14c.22-.2.78-.72 1.95-.72 2.27 0 3 1.54 3 3.4v6.33h-2.9zm3.74-3.18c-.02-1.9 1.28-3.17 3.28-3.17.79 0 1.33.18 1.58.34v-.4c0-.53-.21-1.04-.94-1.04-.68 0-.88.45-.88.83h-2.68c.06-1.94 1.19-3.11 3.55-3.11 3 0 3.81 1.6 3.81 3.76v5.97h-2.37v-.52c-.45.4-1.06.63-1.98.63-1.9 0-3.35-1.24-3.37-3.3zm2.72-.07c0 .63.47 1.08 1.1 1.08.63 0 1.1-.45 1.1-1.08 0-.65-.5-1.07-1.12-1.07-.63 0-1.08.45-1.08 1.07zm11.06 3.25v-5.99c0-.7-.34-1.17-1.03-1.17-.66 0-1.02.45-1.02 1.15v6.01h-2.9V46.1h2.9v.62c.21-.2.77-.72 1.94-.72 2.27 0 3 1.54 3 3.4v6.33h-2.89zm11.18-9.01v-.62h2.72v8.03c0 3.6-2.14 4.92-5.24 4.92a7.71 7.71 0 0 1-3.46-.8l.87-2.25a6.4 6.4 0 0 0 2.6.56c1.32 0 2.33-.47 2.35-1.4a3.4 3.4 0 0 1-2.29.74c-3 0-5-2.02-5-4.95 0-2.76 1.98-5 4.9-5a3.9 3.9 0 0 1 2.55.77zm-4.57 4.2c0 1.36.92 2.4 2.25 2.4 1.42 0 2.25-1.06 2.25-2.4 0-1.34-.88-2.4-2.25-2.4-1.4 0-2.25 1.06-2.25 2.4zm17.55.94h-6.42c.12.92.84 1.48 1.96 1.48 1.03 0 1.62-.6 1.96-1.13l2.22 1.3c-.54 1.1-1.8 2.39-4.2 2.39-2.93 0-4.95-1.86-4.95-4.94 0-2.88 1.93-5.02 4.74-5.02 2.95 0 4.73 1.93 4.73 4.8 0 .3 0 .64-.04 1.12zm-4.7-3.5c-1 0-1.58.7-1.65 1.47h3.38c-.07-.8-.68-1.48-1.72-1.48z" fill="#000"/></svg>