<svg xmlns="http://www.w3.org/2000/svg" width="40" height="40" viewBox="0 0 40 40" fill="none"><path d="M39.5 20a19.5 19.5 0 1 0-39 0 19.5 19.5 0 0 0 39 0z" stroke="currentColor" stroke-linejoin="bevel"/><path fill-rule="evenodd" clip-rule="evenodd" d="M18.5 22.76v-5.1l4.48 2.55-4.49 2.55zm9.97-6.7a2.16 2.16 0 0 0-1.52-1.53c-1.33-.36-6.7-.36-6.7-.36s-5.37 0-6.7.36a2.16 2.16 0 0 0-1.53 1.52c-.35 1.35-.35 4.16-.35 4.16s0 2.81.35 4.16c.2.74.78 1.33 1.52 1.53 1.34.36 6.7.36 6.7.36s5.38 0 6.71-.36c.74-.2 1.32-.79 1.52-1.53.36-1.35.36-4.16.36-4.16s0-2.8-.36-4.16z" fill="currentColor"/></svg>