<svg width="15" height="15" viewBox="0 0 15 15" xmlns="http://www.w3.org/2000/svg" class="_525d90ba"><rect width="15" height="15" rx="7.5" fill="#0052B4"/><path fill="#FFDA44" d="M7.5 2.4l.26.63h.6l-.52.36.2.63-.54-.36-.53.36.19-.63-.51-.36h.59zM10.38 3.3l-.09.67.52.3-.63.05-.15.64-.28-.58-.64.05.48-.45-.27-.57.52.3zM12.2 5.12l-.4.54.3.52-.58-.27-.45.48.05-.64-.58-.28.64-.15.06-.63.3.52zM13.1 7.5l-.63.26v.6l-.36-.52-.63.2.36-.54-.36-.53.63.19.36-.51v.59zM12.2 9.88l-.67-.09-.3.52-.05-.63-.64-.15.58-.28-.05-.64.45.48.57-.27-.3.52zM10.38 11.7l-.54-.4-.52.3.27-.58-.48-.45.64.05.28-.58.15.64.63.06-.52.3zM7.5 12.6l-.26-.63h-.6l.52-.36-.2-.63.54.36.53-.36-.19.63.51.36h-.59zM4.62 11.7l.09-.67-.52-.3.63-.05.15-.64.28.58.64-.05-.48.45.27.57-.52-.3zM2.8 9.88l.4-.54-.3-.52.58.27.45-.48-.05.64.58.28-.64.15-.06.63-.3-.52zM1.9 7.5l.63-.26v-.6l.36.52.63-.2-.36.54.36.53-.63-.19-.36.52v-.6zM2.8 5.12l.67.09.3-.52.05.63.64.15-.58.28.05.64-.45-.48-.57.27.3-.52zM4.62 3.3l.54.4.52-.3-.27.58.48.45-.64-.05-.28.58-.15-.64-.63-.06.52-.3z"/></svg>