<svg xmlns="http://www.w3.org/2000/svg" width="40" height="40" viewBox="0 0 40 40" fill="none"><path d="M39.5 20a19.5 19.5 0 1 0-39 0 19.5 19.5 0 0 0 39 0z" stroke="currentColor" stroke-linejoin="bevel"/><path fill-rule="evenodd" clip-rule="evenodd" d="M24.17 11.67h-8.34a4.17 4.17 0 0 0-4.16 4.16v8.34a4.17 4.17 0 0 0 4.16 4.16h8.34a4.17 4.17 0 0 0 4.16-4.16v-8.34c0-2.3-1.86-4.16-4.16-4.16zm0 1.66a2.5 2.5 0 0 1 2.5 2.5v8.34a2.5 2.5 0 0 1-2.5 2.5h-8.34a2.5 2.5 0 0 1-2.5-2.5v-8.34a2.5 2.5 0 0 1 2.5-2.5h8.34zM20 15.83a4.17 4.17 0 1 0 0 8.34 4.17 4.17 0 0 0 0-8.34zm0 1.67a2.5 2.5 0 1 1 0 5 2.5 2.5 0 0 1 0-5zm4.45-1.12a.83.83 0 1 0 0-1.66.83.83 0 0 0 0 1.66z" fill="currentColor"/></svg>