<svg width="15" height="15" viewBox="0 0 15 15" fill="none" xmlns="http://www.w3.org/2000/svg" class="_525d90ba"><rect width="15" height="15" rx="7.5" fill="#249F58"/><path fill-rule="evenodd" clip-rule="evenodd" d="M13 10V9H2l2 1h6c0 .55.67 1 1.5 1s1.5-.45 1.5-1zM5.73 3.9l-.05.03c-.06.03-.16.14-.17.27 0 .07-.01.07.03.12.04.05.07.05.14 0a.15.15 0 0 0 .07-.09c.01-.08-.09.04-.1-.05-.02-.08.04-.12.1-.2 0-.04 0-.07-.02-.07zm1 .01c-.02 0-.04.03-.07.09-.03.06-.13.16-.05.35.06.12.08.32.05.54l-.1.15c-.08.09-.16.06-.22.03-.06-.04-.11-.06-.14-.18 0-.2.02-.54-.02-.6-.05-.11-.14-.08-.18-.04a1.4 1.4 0 0 0-.33.68c-.05.16-.1.11-.14.05-.1-.1-.1-.77-.21-.66-.18.51.1 1.08.3 1.02.14.06.23-.2.28-.5.04-.09.07-.1.1-.05-.01.39.02.48.12.6.23.17.41.02.43 0l.17-.17c.04-.04.1-.04.15 0 .05.04.05.12.16.18.1.04.3.01.35-.07l.1-.2c.06-.05.13-.02.13 0 0 .03-.05.06-.02.12.06.04.07.02.1 0 .12-.04.2-.3.2-.3 0-.08-.04-.08-.08-.06-.04.03-.04.04-.09.06-.05.01-.16.05-.22-.03-.05-.1-.05-.24-.1-.34 0-.01-.07-.16 0-.17.03 0 .1.03.12-.04.04-.06-.08-.23-.15-.31-.07-.07-.16-.08-.25 0-.06.05-.05.11-.07.18a.29.29 0 0 0 .06.25c.06.12.18.28.14.5 0 0-.07.1-.18.09-.05-.01-.13-.03-.17-.34-.03-.23 0-.56-.1-.71-.01-.06-.03-.12-.06-.11zm-.31.03c-.03 0-.07.04-.1.1a1.7 1.7 0 0 0-.04.32c-.02.08.08.12.13.01.07-.19.07-.27.07-.34 0-.06-.03-.1-.06-.1zm1.17.02c-.03 0-.06.02-.07.07 0 .1 0 .16.02.25 0 .06.1.16.14.22.2.27.4.54.59.83a12.42 12.42 0 0 1 .08 2.1c.08 0 .21-.13.26-.34.03-.28 0-.86-.01-1.02l-.01-.24c.22.36.43.74.64 1.15.07-.03.06-.46.01-.52-.16-.36-.4-.72-.47-.85a6.99 6.99 0 0 0-.22-.35 5.2 5.2 0 0 0-.06-.48c-.04-.24.1.03.08-.11-.04-.24-.18-.4-.33-.62-.05-.07-.05-.09-.13.02-.04.1-.04.19-.03.27a2.38 2.38 0 0 0-.08-.1l-.26-.22c-.03-.03-.1-.07-.15-.06zm3.47.03c-.01 0-.03 0-.05.04a.2.2 0 0 0-.07.16l.04.38.01.05-.03-.04c-.25-.26.11-.04-.05-.24-.13-.15-.17-.2-.29-.29-.06-.03-.1-.1-.11.02-.01.1-.02.23-.01.32 0 .05.05.14.1.2l.5.64c.03.46.04.88.08 1.33 0 .2-.07.46-.12.48 0 0-.1.05-.15 0-.04-.02-.21-.28-.21-.28-.09-.08-.15-.06-.2 0-.18.16-.26.47-.37.68-.03.05-.11.09-.2 0-.24-.33-.1-.79-.13-.67-.21.24-.12.63-.07.72.07.14.12.23.26.3.12.08.22.03.27-.04.12-.12.13-.45.18-.52.04-.12.15-.1.2-.04.05.07.1.11.17.15.12.1.26.12.4.03.09-.06.15-.12.2-.26.06-.15.03-.97.02-1.43l.26.38c.03.4.05.79.04 1.17-.01.07.26-.23.26-.37v-.34l.38.64c.07-.04.05-.46 0-.52-.12-.21-.29-.44-.41-.62l-.08-.56c-.02-.13-.04-.32-.08-.47a1.48 1.48 0 0 1-.03-.26c.02-.04.07 0 .1-.04.04-.05-.14-.52-.24-.66-.03-.06-.1-.04-.16.06-.07.07-.05.21-.02.35.07.36.13.73.18 1.1l-.31-.46-.02-.07-.02-.36c0-.03-.01-.04.02-.03l.05.03c.03 0 .06-.04.04-.1l-.3-.53c0-.01-.01-.02-.03-.02zM2.1 4c-.05 0-.1.03-.09.1-.01.03.1.15.13.22.02.04-.02.2.02.2.03.02.08-.1.1-.2.01-.07 0-.27-.14-.31H2.1zm10.22 0l-.05.07a.63.63 0 0 0-.05.4c.13.88.23 1.75.25 2.53-.01.08-.01.12-.05.21-.08.1-.16.23-.24.29-.08.06-.25.12-.31.16-.18.1-.18.22-.04.23.25-.03.55-.05.75-.36.05-.08.12-.32.12-.46.02-.83-.01-1.64-.14-2.25 0-.06-.03-.19-.02-.2.01-.05.1 0 .12-.05.05-.04-.2-.37-.3-.5-.01-.04-.02-.07-.04-.06zm-2.6.02l-.05.05c-.07.23-.1.41-.07.56.18.93.36 1.77.33 2.66.09 0 .19-.2.23-.39.02-.26-.02-.43-.02-.58-.01-.16-.18-1.42-.21-1.53-.05-.22.16-.03.14-.16-.07-.16-.25-.4-.3-.54-.03-.04-.03-.08-.05-.07zm-6.33.02a.07.07 0 0 0-.05.05l-.01.06c-.01 0-.05 0-.05-.05l-.02-.05h-.03l-.02.02-.01.04c0 .02-.01.03-.02.03h-.03l-.02-.03v-.05l-.04-.02c-.06 0-.07.08-.06.1 0 .02-.01.15.08.19.12.06.35.03.34-.16v-.1l-.06-.03zm1.62 0a.26.26 0 0 0-.1.03c-.09.08-.1.2-.04.28.06.03.12.09.08.12-.17.19-.63.5-.65.55v.01c.03.02.31.02.34 0 .1-.04.56-.56.56-.56l-.07-.06c-.02-.02-.02-.04 0-.07.12-.06.08-.21.02-.28A.29.29 0 0 0 5 4.04zm4.25 0l-.05.07a.76.76 0 0 0-.08.39c.11.82.15 1.54.23 2.36 0 .08 0 .19-.06.24-.2.2-.48.45-.78.57-.04.03.08.19.23.19.25-.03.46-.17.67-.54a.95.95 0 0 0 .15-.4 8.83 8.83 0 0 0-.17-2.09V4.7c.03-.02.08 0 .1-.05.05-.04-.1-.4-.2-.54-.01-.03-.02-.06-.04-.06zm-6.58.03c-.03 0-.07.03-.08.07v.38c.07.21.08.4.11.61.01.3-.16.13-.16-.01.04-.2.03-.49 0-.56-.03-.08-.06-.1-.13-.08-.06 0-.2.15-.24.4 0 0-.04.14-.05.26-.02.13-.1.23-.17-.02-.05-.18-.09-.62-.17-.52-.03.35-.06.95.23 1.01.36.04.16-.6.29-.7.02-.06.07-.06.07 0v.54c0 .18.11.23.2.27.1-.01.15 0 .19.08l.05.93s.2.06.22-.52c0-.34-.07-.63-.02-.7 0-.06.08-.07.14-.04.1.07.13.15.28.12.22-.06.35-.17.35-.34a1.37 1.37 0 0 0-.1-.48c.01-.02-.04-.1-.03-.13.04.06.1.06.11 0-.03-.12-.1-.24-.19-.29-.07-.07-.19-.05-.23.09-.02.16.06.36.18.52.03.06.06.16.05.25-.07.04-.13.02-.18-.03 0 0-.18-.13-.18-.16.05-.3.01-.33-.01-.41-.02-.12-.07-.15-.12-.23-.04-.05-.1-.05-.13 0-.08.13-.04.42.02.55.04.12.1.19.07.19-.02.06-.07.05-.11-.03-.05-.16-.06-.4-.06-.5-.02-.13-.03-.42-.12-.49-.03-.03-.05-.04-.08-.04zm1.24 0c-.02 0-.04 0-.06.02-.07.02-.14.08-.12.2l.23 1.5c.02.07-.04.15-.1.14-.12-.08-.15-.24-.35-.23-.14 0-.3.16-.32.3a.76.76 0 0 0 0 .36c.1.12.22.11.32.08.09-.03.16-.12.2-.1.01.04 0 .32-.42.53-.25.12-.45.14-.56-.06-.06-.13 0-.62-.15-.5-.5 1.25 1.13 1.42 1.31.05.02-.04.05-.08.08-.07 0 0 .02.02.02.05-.04 1.24-1.26 1.33-1.46.93-.05-.09-.07-.3-.07-.42-.01-.07-.03-.11-.05-.13-.05-.04-.12.06-.13.23-.02.13-.02.17-.02.3.07.98 1.63.56 1.89-.25.13-.42 0-.74.04-.78h.01c.16.17.37.02.42-.04.02-.03.07-.05.11 0 .12.08.33.04.38-.12.02-.15.05-.3.05-.46-.08.02-.14.04-.17.07l-.01.02-.02.13v.01l-.02.02c-.03.01-.08 0-.08-.04-.04-.17-.2-.19-.28.08-.07.05-.18.06-.2-.02.02-.18-.05-.2-.2-.12l-.13-1.04c.06 0 .11.04.17-.03-.06-.18-.19-.55-.26-.59l-.01-.01-.01-.01h-.01-.02zm4.84 0c-.06 0-.13.04-.1.11-.02.05.13.2.16.27.04.12-.04.24 0 .25.05.02.1-.12.13-.25.02-.11-.05-.33-.16-.38h-.03zm-3.77.13c.03 0 .06.02.08.06.02.04 0 .08-.02.08-.03.01-.07-.01-.09-.05-.01-.04 0-.08.02-.09h.01zm7 .18c-.06 0-.12.04-.1.13-.01.04.12.2.15.29.02.06-.03.25 0 .27.04.02.1-.14.12-.28 0-.08-.05-.36-.15-.4h-.02zm-3.87.1l.01.07.03.15a1.77 1.77 0 0 0-.1-.13c-.1-.12 0-.08.06-.1zm.89.44c-.02 0-.04.02-.05.05l-.01.06c-.01 0-.05 0-.05-.05l-.02-.05h-.02c-.02 0-.02 0-.03.02l-.01.04c0 .02 0 .03-.02.03h-.03l-.01-.03-.01-.05-.03-.02c-.07 0-.07.08-.07.1 0 .01 0 .15.08.19.13.05.35.03.34-.17v-.09c-.01-.03-.04-.04-.06-.03zm-4.07.04l-.06.01c-.1.06-.14.23-.08.33.06.1.16.06.18.06.1.02.16-.2.16-.2s0-.05-.12.06c-.05 0-.06-.01-.07-.04A.25.25 0 0 1 4.95 5c.02-.03 0-.05-.02-.05zm5.75.02c-.06 0-.12.04-.14.12 0 .05.03.07.02.12 0 .02-.03.04-.1.01.02-.01-.03-.08-.03-.08-.05-.03-.11 0-.15.03a.23.23 0 0 0-.02.19c.07.12.3.34.42.34l.02-.36c0-.04 0-.07.04-.08.04-.01.1.03.1 0-.01-.08-.02-.19-.06-.24a.12.12 0 0 0-.1-.05zm-4.76.4l-.06.06c-.06.06-.06.1-.06.22l.18.47c.06.2.1.42.07.64-.13.28-.39.53-.64.67-.13.04-.24.03-.27 0a.17.17 0 0 1-.07-.16c.2-.15.45-.27.64-.67.06-.15.08-.24.02-.48a.46.46 0 0 0-.11-.22c.04-.02.13.05.15 0a.72.72 0 0 0-.19-.33c-.07-.07-.16-.08-.23-.02-.07.05-.09.2-.05.34.04.1.15.12.23.33 0 0 .03.15-.01.2-.03.11-.46.44-.49.46v-.06l.02-.23c-.14.09-.2.37-.22.45-.35.24-.75.42-.98.67-.12.19.83-.22.94-.27.02.03.02.11.09.18.1.14.3.22.5.17.35-.13.55-.36.75-.62.03-.04.07-.07.11-.04.14.3.54.53 1.05.55.12-.14.06-.21.02-.24-.02-.01-.26-.1-.3-.2-.02-.09.04-.16.15-.22.33-.04.66-.09.97-.19 0-.1.06-.26.1-.33l.06-.06v-.01l-.05-.03H7.19a.1.1 0 0 1-.03-.02v-.01l.03-.03c.25-.03.7-.1.72-.53 0-.23-.1-.37-.37-.41-.2.01-.34.2-.32.42 0 .06.02.17-.04.18-.38.04-.8.28-.82.46h-.02c-.02-.01-.06-.05-.05-.11-.02-.3-.11-.64-.27-.9-.05-.05-.08-.08-.1-.08zm1 .16a.07.07 0 0 0-.04.05l-.01.06c-.01.01-.05 0-.05-.05l-.02-.04-.02-.01c-.02 0-.02 0-.03.02l-.01.04c0 .02-.01.03-.02.03h-.03l-.02-.03v-.05l-.03-.01c-.07 0-.07.07-.07.1 0 0 0 .14.08.18.12.06.41.02.34-.17v-.09c-.02-.03-.04-.04-.06-.03zM11 5.7l-.58.4c-.06.06-.03.23 0 .21.04.02.6-.37.6-.41.02 0 .03-.2-.02-.2zm-3.53.06c.02 0 .05 0 .08.02.04.02.07.06.06.09v.01c-.02.02-.07.02-.11 0-.05-.03-.07-.07-.07-.1v-.01h.01l.03-.02zm-4.92.1c-.29 0-.72.38-.73.59l.92-.44c-.05-.08 0-.15-.19-.15zm.94.13c.03 0 .06.01.08.05a.1.1 0 0 1-.02.1h-.09c-.03 0-.05 0-.07-.03-.01-.03.02-.07.03-.1A.09.09 0 0 1 3.48 6h.01zm7.4.11c-.05 0-.1.06-.08.14-.01.04.07.2.1.29.02.06-.03.23.01.25.04.02.14-.1.14-.26 0-.08-.03-.37-.13-.41h-.04zM4.6 6.4c-.05 0-.09.02-.07.09 0 .04.13.1.14.2.02.05-.03.2 0 .21.05.02.1-.1.11-.2.01-.06-.04-.26-.14-.3H4.6zm1.88.25h.01c.12.03.3.04.44.05.13.01.19.1.07.15-.11.04-.22.07-.22.23.01.08 0 .12 0 .14h-.01v.01h-.01l-.1-.03c-.07-.05-.26-.17-.3-.43 0-.06.05-.11.12-.12zm-4.6.2l-.03.05c-.18.27-.2.69-.1.8a.2.2 0 0 0 .2.07c.1-.04.16-.26.13-.34-.04-.06-.07-.07-.1-.02-.08.15-.11.05-.12-.04 0-.16 0-.32.03-.44v-.08zm5.9.36l-.04.01s-.12.08-.16.14c-.02.02-.02.04-.01.07.01.04.05.03.08 0 .05 0 .08.03.07.1-.02.07.01.1.01.1s.05.04.1.01c.12-.04.2-.09.36-.12.05 0 .04-.12-.03-.12a.4.4 0 0 0-.26.08c-.05 0-.06-.03-.07-.06-.02-.07.03-.12.02-.18 0 0-.03-.02-.07-.02zm3.78.14l-.08.01c-.04 0-.05.03-.06.07 0 .06.05.06.09.09.02.03.04.06 0 .1l-.11.1c-.02.03-.03.08.03.1.1.02.35-.13.35-.14.04-.03.02-.08.02-.08-.02-.03-.08-.01-.11-.02-.02 0-.07 0-.05-.05a.32.32 0 0 0 .05-.09c.01-.03 0-.06-.06-.08h-.07zm-1.45 3.86c.27.02.52 0 .79.02.04.04.02.12 0 .13h-.25v-.01c-.02-.06-.17-.06-.2-.01h-.01v.02c-.12.02-.22 0-.34 0-.04-.05-.03-.13 0-.15z" fill="#fff"/></svg>