<svg width="15" height="15" viewBox="0 0 15 15" xmlns="http://www.w3.org/2000/svg" class="_525d90ba"><clipPath id="r"><circle cx="7.5" cy="7.5" r="7.5"/></clipPath><g clip-path="url(#r)"><path fill="#00247D" d="M0 0h15v15H0z"/><path fill="#00247D" d="M0 0h7.5v7.5H0z"/><path fill="#fff" d="M3 0h1.5v7.5H3z"/><path fill="#fff" d="M0 3h7.5v1.5H0z"/><path fill="#CF142B" d="M3.25 0h1v7.5h-1z"/><path fill="#CF142B" d="M0 3.25h7.5v1H0z"/><path fill="#fff" d="M4 9.15l.33.8h.76l-.65.44.24.8L4 10.7l-.68.5.24-.8-.65-.45h.76zM10.6 2.3l.23.56h.53l-.46.3.17.56-.47-.34-.47.34.17-.56-.46-.3h.53zM11.9 4.4l.17.42h.4l-.34.23.12.42-.35-.26-.35.26.12-.42-.34-.23h.4zM12.2 6.2l.23.56h.53l-.46.3.17.56-.47-.34-.47.34.17-.56-.46-.3h.53zM10.8 8.2l.23.56h.53l-.46.3.17.56-.47-.34-.47.34.17-.56-.46-.3h.53zM9.4 10.2l.23.56h.53l-.46.3.17.56-.47-.34-.47.34.17-.56-.46-.3h.53z"/></g></svg>