<svg width="15" height="15" viewBox="0 0 15 15" fill="none" xmlns="http://www.w3.org/2000/svg" class="_525d90ba"><g clip-path="url(#clip0_1450_4349)"><rect width="15" height="15" rx="7.5" fill="#fff"/><path d="M7.7 11.62h-.4l.1-1.65c0-.09-.05-.1-.2-.1l-1.66.2s.31-.4.31-.61C5.85 9.25 4 7.9 4 7.9s.41-.1.51-.2c.1-.1-.4-1.24-.4-1.24s1.04.41 1.13.3c.08-.1.2-.5.2-.5s.82.92 1.03.92c.2 0-.41-2.26-.41-2.26s.51.4.72.4c.2 0 .72-1.33.72-1.33s.51 1.34.62 1.34c.1 0 .82-.41.82-.41s-.51 2.16-.41 2.26c.1.1 1.03-.93 1.03-.93s.1.42.2.52c.1.1 1.14-.3 1.14-.3s-.52 1.12-.41 1.23c.1.1.51.2.51.2S9.15 9.25 9.15 9.46c0 .2.2.61.2.61l-1.54-.2c-.13-.04-.17-.01-.2.1l.1 1.65zM13 0h5v15h-5zM-3 0h5v15h-5z" fill="#F93939"/></g><defs><clipPath id="clip0_1450_4349"><rect width="15" height="15" rx="7.5" fill="#fff"/></clipPath></defs></svg>