<svg width="15" height="15" viewBox="0 0 15 15" fill="none" xmlns="http://www.w3.org/2000/svg" class="_525d90ba"><g clip-path="url(#clip0_1450_4193)"><rect width="15" height="15" rx="7.5" fill="#1A47B8"/><path fill-rule="evenodd" clip-rule="evenodd" d="M-.77 0H-3v2.5L15.75 15H18v-2.5L-.77 0z" fill="#fff"/><path d="M-2.25 0L18 13.54V15h-.73L-3 1.45V0h.75z" fill="#F93939"/><path fill-rule="evenodd" clip-rule="evenodd" d="M16 0h2v2.5S5.01 10.83-1 15h-2v-2.5L16 0z" fill="#fff"/><path d="M18 0h-.68L-3 13.55V15h.75L18 1.46V0z" fill="#F93939"/><path fill-rule="evenodd" clip-rule="evenodd" d="M4.64 0h5.74v4.63H18v5.74h-7.62V15H4.64v-4.63H-3V4.63h7.64V0z" fill="#fff"/><path fill-rule="evenodd" clip-rule="evenodd" d="M5.84 0h3.32v5.77H18v3.46H9.16V15H5.84V9.23H-3V5.77h8.84V0z" fill="#F93939"/></g><defs><clipPath id="clip0_1450_4193"><rect width="15" height="15" rx="7.5" fill="#fff"/></clipPath></defs></svg>