<svg xmlns="http://www.w3.org/2000/svg" width="40" height="40" viewBox="0 0 40 40" fill="none"><path d="M39.5 20a19.5 19.5 0 1 0-39 0 19.5 19.5 0 0 0 39 0z" stroke="currentColor" stroke-linejoin="bevel"/><path fill-rule="evenodd" clip-rule="evenodd" d="M20 11.67a8.36 8.36 0 0 0-8.33 8.38 8.37 8.37 0 0 0 7.03 8.28v-5.86h-2.12v-2.42h2.12V18.2c0-2.1 1.24-3.26 3.15-3.26.9 0 1.86.17 1.86.17v2.06h-1.05c-1.04 0-1.36.65-1.36 1.3v1.58h2.31l-.37 2.42H21.3v5.86a8.37 8.37 0 0 0 7.03-8.28A8.36 8.36 0 0 0 20 11.67z" fill="currentColor"/></svg>