<svg width="15" height="15" viewBox="0 0 15 15" fill="none" xmlns="http://www.w3.org/2000/svg" class="_525d90ba"><g clip-path="url(#clip0_1450_4344)"><rect width="15" height="15" rx="7.5" fill="#F93939"/><path d="M19 0H2a2 2 0 0 0-2 2v11c0 1.1.9 2 2 2h17a2 2 0 0 0 2-2V2a2 2 0 0 0-2-2z" fill="#F93939"/><path fill-rule="evenodd" clip-rule="evenodd" d="M5.5 7.23L4.03 8l.28-1.63L3.12 5.2l1.64-.24.74-1.5.73 1.5 1.65.24-1.2 1.16L6.98 8 5.5 7.23zM9 3h1v1H9V3zm1 2h1v1h-1V5zm0 2h1v1h-1V7zM9 9h1v1H9V9z" fill="#FFDA2C"/></g><defs><clipPath id="clip0_1450_4344"><rect width="15" height="15" rx="7.5" fill="#fff"/></clipPath></defs></svg>